<svg width="73" height="72" viewBox="0 0 73 72" fill="none" xmlns="http://www.w3.org/2000/svg">
<g clip-path="url(#clip0_84_837)">
<g clip-path="url(#clip1_84_837)">
<path d="M66.6717 37.7437C66.4548 36.6138 65.4666 35.7968 64.3161 35.7961H61.9989L61.8285 34.7749C61.6585 33.7492 60.8504 32.9479 59.8233 32.7865C59.5953 32.7505 59.3649 32.7265 59.1381 32.6953C59.531 30.8608 59.2046 28.9453 58.2261 27.3445C58.743 26.0035 58.6466 24.5033 57.962 23.2395C57.2775 21.9758 56.0737 21.0754 54.6681 20.7757C53.7694 15.9661 49.5852 12.47 44.6925 12.4405C44.5725 12.4405 44.4657 12.4561 44.3517 12.4597C43.5699 11.2319 42.2809 10.4171 40.8365 10.2374C39.3921 10.0578 37.9428 10.5321 36.8841 11.5309C35.5503 10.6639 33.994 10.2017 32.4033 10.2001C29.8401 10.2106 27.4245 11.4003 25.8537 13.4257C24.1095 12.9171 22.2287 13.2294 20.7425 14.2744C19.2563 15.3193 18.326 16.9836 18.2145 18.7969C16.3825 19.567 15.1904 21.3601 15.1893 23.3473C15.193 23.6918 15.2332 24.0349 15.3093 24.3709C13.6891 26.8133 13.2658 29.8593 14.1585 32.6509C13.8369 32.6953 13.5081 32.7349 13.1985 32.7805C12.166 32.9363 11.3507 33.7381 11.1777 34.7677L11.0073 35.7925H8.68406C7.53548 35.7933 6.54847 36.6078 6.32966 37.7353L1.07486 64.7137C0.869646 65.7703 1.14793 66.8632 1.83344 67.693C2.51895 68.5228 3.53976 69.0023 4.61606 69.0001H29.6409C30.6345 70.6393 33.6537 71.4001 36.5001 71.4001C39.3165 71.4001 42.3069 70.6573 43.3293 69.0001H68.3841C69.4601 69.0022 70.4807 68.5229 71.1661 67.6934C71.8516 66.8639 72.1301 65.7713 71.9253 64.7149L66.6717 37.7437ZM18.8181 25.5193C17.8437 24.9335 17.3787 23.7705 17.6806 22.6745C17.9824 21.5784 18.9772 20.8174 20.1141 20.8129C20.9097 20.8106 21.6585 21.1888 22.1289 21.8305C22.3844 22.1748 22.8041 22.3566 23.23 22.3074C23.6559 22.2583 24.0233 21.9856 24.1936 21.5922C24.364 21.1988 24.3116 20.7444 24.0561 20.4001C23.2412 19.3111 22.0064 18.6144 20.6529 18.4801C21.0106 16.7996 22.4926 15.5965 24.2109 15.5917C24.3573 15.5992 24.5031 15.6152 24.6477 15.6397C24.5511 15.8857 24.467 16.1365 24.3957 16.3909C24.2463 17.0261 24.6319 17.6643 25.2637 17.8275C25.8956 17.9906 26.5419 17.619 26.7189 16.9909C26.8553 16.4635 27.065 15.9578 27.3417 15.4885C28.4061 13.7053 30.3265 12.6094 32.4033 12.6001C33.5335 12.6051 34.638 12.9387 35.5821 13.5601C35.4022 14.0655 35.3069 14.597 35.3001 15.1333C35.3001 15.7961 35.8373 16.3333 36.5001 16.3333C37.1628 16.3333 37.7001 15.7961 37.7001 15.1333C37.7001 13.7393 38.8302 12.6091 40.2243 12.6091C41.6183 12.6091 42.7485 13.7393 42.7485 15.1333C42.7485 15.7961 43.2857 16.3333 43.9485 16.3333C44.6112 16.3333 45.1485 15.7961 45.1485 15.1333C45.1485 15.0409 45.1257 14.9533 45.1209 14.8609C48.5569 15.0729 51.4462 17.5154 52.2273 20.8681C51.6675 21.0311 51.1416 21.2933 50.6745 21.6421C50.3315 21.8994 50.1518 22.32 50.2031 22.7457C50.2544 23.1713 50.5288 23.5373 50.9231 23.7057C51.3173 23.8741 51.7715 23.8194 52.1145 23.5621C53.0734 22.8522 54.398 22.9088 55.2929 23.698C56.1877 24.4872 56.4094 25.7944 55.8249 26.8345C55.5636 27.2938 55.1667 27.661 54.6885 27.8857C54.187 28.1285 53.9186 28.6846 54.0405 29.2283C54.1624 29.772 54.6425 30.1603 55.1997 30.1657C55.3756 30.166 55.5494 30.1271 55.7085 30.0517C56.0265 29.8976 56.327 29.7097 56.6049 29.4913C57.2252 31.2548 56.8361 33.2161 55.5897 34.6093L55.5609 34.6393C53.9975 36.3329 51.5037 36.7906 49.4409 35.7625C49.2388 35.6558 49.0447 35.5347 48.8601 35.4001C49.7439 34.161 49.866 32.5333 49.1769 31.1761C48.9839 30.7931 48.6013 30.542 48.1731 30.5176C47.7449 30.4931 47.3362 30.699 47.1009 31.0576C46.8656 31.4162 46.8395 31.8731 47.0325 32.2561C47.4271 33.0493 47.1809 34.0118 46.4541 34.5181C46.0272 34.8023 45.4999 34.8922 45.003 34.7655C44.5061 34.6387 44.0863 34.3072 43.8477 33.8533C43.6558 33.4698 43.2739 33.2178 42.8459 33.1922C42.4179 33.1666 42.0087 33.3713 41.7725 33.7292C41.5363 34.0871 41.509 34.5438 41.7009 34.9273C42.4046 36.348 43.8547 37.2452 45.4401 37.2409C45.9562 37.2374 46.4671 37.1369 46.9461 36.9445C47.3747 37.3198 47.8469 37.6421 48.3525 37.9045C50.0627 38.791 52.0515 38.9749 53.8953 38.4169C52.7094 40.0361 50.9346 41.1244 48.9537 41.4469C48.3374 41.5473 47.901 42.1034 47.9502 42.7259C47.9994 43.3483 48.5177 43.829 49.1421 43.8313C49.2059 43.8313 49.2697 43.8265 49.3329 43.8169C50.0636 43.6904 50.7777 43.4819 51.4617 43.1953C51.8313 43.8489 52.1314 44.5395 52.3569 45.2557C52.3982 45.3808 52.4192 45.5116 52.4193 45.6433C52.419 46.162 52.1092 46.6304 51.6321 46.8337C51.0801 47.0472 50.4534 46.8788 50.0829 46.4173C49.1535 45.326 47.9366 44.5173 46.5705 44.0833C43.9773 43.2145 42.9765 42.4381 42.5517 41.5933C43.1743 41.5156 43.7895 41.3872 44.3913 41.2093C44.8011 41.0833 45.1126 40.7482 45.2084 40.3302C45.3041 39.9122 45.1697 39.4749 44.8556 39.183C44.5415 38.8911 44.0955 38.7889 43.6857 38.9149C43.0123 39.1215 42.3173 39.2492 41.6145 39.2953C40.2605 39.4012 38.9002 39.1959 37.6377 38.6953C37.1636 38.5105 36.6245 38.6446 36.2925 39.0301C34.5453 41.0371 31.555 41.3782 29.4008 39.8163C27.2465 38.2544 26.641 35.3063 28.0053 33.0217C28.2263 32.6528 28.2337 32.194 28.0247 31.8182C27.8157 31.4423 27.4221 31.2065 26.9921 31.1996C26.5621 31.1926 26.1611 31.4156 25.9401 31.7845C25.6538 32.2718 25.4235 32.7899 25.2537 33.3289C24.3087 33.2792 23.5636 32.5063 23.5485 31.5601V31.5301C23.5478 31.2135 23.4207 30.9102 23.1954 30.6878C22.97 30.4654 22.6651 30.3422 22.3485 30.3457C21.6829 30.3523 21.1471 30.8945 21.1485 31.5601C21.1538 33.6883 22.7587 35.472 24.8745 35.7013C24.8788 36.1036 24.9153 36.5049 24.9837 36.9013C22.3043 37.4811 19.5253 36.518 17.7793 34.4046C16.0333 32.2911 15.6119 29.3803 16.6869 26.8585C16.9553 27.1301 17.255 27.369 17.5797 27.5701C18.1465 27.9022 18.8751 27.7167 19.2141 27.1539C19.5531 26.5912 19.3766 25.8605 18.8181 25.5145V25.5193ZM13.5381 35.1589C14.0913 35.0773 14.6625 35.0053 15.2301 34.9309C17.4488 38.4765 21.6922 40.1981 25.7541 39.2005C26.8455 41.2719 28.8397 42.7165 31.1482 43.1077C33.4566 43.499 35.8155 42.7922 37.5285 41.1961C38.344 41.4394 39.1839 41.5915 40.0329 41.6497C40.6125 43.8481 42.2877 45.1801 45.8073 46.3597C46.7561 46.6572 47.6025 47.2147 48.2505 47.9689C48.9708 48.8255 50.0305 49.3233 51.1497 49.3309C51.6391 49.3308 52.1236 49.232 52.5741 49.0405C53.9343 48.4592 54.8167 47.1226 54.8169 45.6433C54.818 45.2575 54.7564 44.8741 54.6345 44.5081C54.3646 43.6603 54.0092 42.842 53.5737 42.0661C55.6142 40.5992 57.0357 38.4253 57.5613 35.9677C57.8168 35.6641 58.048 35.3407 58.2525 35.0005C58.6545 35.0521 59.0565 35.0977 59.4609 35.1649L63.7929 61.2217C55.3251 58.3942 46.1679 58.3942 37.7001 61.2217V46.2001C37.7001 45.5374 37.1628 45.0001 36.5001 45.0001C35.8373 45.0001 35.3001 45.5374 35.3001 46.2001V61.2265C26.8332 58.3964 17.6762 58.393 9.20726 61.2169L13.5381 35.1589ZM3.68126 66.1585C3.45452 65.8846 3.36209 65.5237 3.42926 65.1745L8.68406 38.1961H10.6041L6.83846 60.8269C6.70602 61.6507 7.00932 62.4843 7.64014 63.0303C8.27097 63.5763 9.13944 63.7569 9.93566 63.5077C16.3329 61.4352 23.1482 61.0027 29.7561 62.2501L29.3985 66.6001H4.61606C4.25405 66.6004 3.91098 66.4383 3.68126 66.1585ZM36.5001 69.0001C33.6093 69.0001 31.9509 68.1457 31.7073 67.7653L32.1201 62.7853C33.4396 63.1139 34.7308 63.5468 35.9817 64.0801C36.1434 64.1581 36.3205 64.1991 36.5001 64.2001C36.6801 64.1999 36.8577 64.1588 37.0197 64.0801C38.2697 63.5437 39.5606 63.1079 40.8801 62.7769L41.2929 67.7641C41.0493 68.1457 39.3909 69.0001 36.5001 69.0001V69.0001ZM69.3189 66.1585C69.0891 66.4383 68.7461 66.6004 68.3841 66.6001H43.6053L43.2453 62.2417C49.8568 60.9969 56.6751 61.433 63.0741 63.5101C63.8701 63.756 64.7367 63.5728 65.3651 63.0258C65.9935 62.4787 66.2944 61.6457 66.1605 60.8233L62.3985 38.1973H64.3185L69.5745 65.1733C69.641 65.5234 69.5472 65.8849 69.3189 66.1585V66.1585Z" fill="#FFAB71"/>
<path d="M32.5228 27.8221C32.0316 28.2666 31.9935 29.025 32.4376 29.5165C33.4556 30.6404 34.8009 31.4161 36.2836 31.7341C35.6121 32.6804 34.5231 33.2419 33.3628 33.2401C32.7001 33.2401 32.1628 33.7773 32.1628 34.4401C32.1628 35.1028 32.7001 35.6401 33.3628 35.6401C35.847 35.65 38.076 34.1157 38.9536 31.7917C41.9375 31.2972 44.2998 29.0004 44.878 26.0317C44.9674 25.6071 44.8205 25.1673 44.4939 24.8815C44.1674 24.5958 43.712 24.5086 43.303 24.6535C42.894 24.7984 42.595 25.1529 42.5212 25.5805C42.2859 26.8182 41.5718 27.913 40.534 28.6273C38.5375 29.9719 35.8599 29.6667 34.2172 27.9073C33.7728 27.4161 33.0143 27.3779 32.5228 27.8221Z" fill="#FFAB71"/>
<path d="M28.3396 26.5202C29.0024 26.5202 29.5396 25.9829 29.5396 25.3202C29.5396 24.4927 29.8684 23.6991 30.4535 23.114C31.0386 22.5289 31.8322 22.2002 32.6596 22.2002C33.3224 22.2002 33.8596 21.6629 33.8596 21.0002C33.8596 20.3374 33.3224 19.8002 32.6596 19.8002C29.6124 19.8035 27.143 22.2729 27.1396 25.3202C27.1396 25.6384 27.2661 25.9437 27.4911 26.1687C27.7162 26.3937 28.0214 26.5202 28.3396 26.5202Z" fill="#FFAB71"/>
<path d="M37.6998 3.0001V1.8001C37.6998 1.13736 37.1625 0.600098 36.4998 0.600098C35.8371 0.600098 35.2998 1.13736 35.2998 1.8001V3.0001C35.2998 3.66284 35.8371 4.2001 36.4998 4.2001C37.1625 4.2001 37.6998 3.66284 37.6998 3.0001Z" fill="#FFAB71"/>
<path d="M56.1924 9.21122L54.9924 10.4112C54.6804 10.7125 54.5553 11.1587 54.6651 11.5782C54.7749 11.9978 55.1026 12.3254 55.5221 12.4353C55.9417 12.5451 56.3879 12.42 56.6892 12.108L57.8892 10.908C58.2011 10.6067 58.3262 10.1606 58.2164 9.74102C58.1066 9.32146 57.7789 8.99381 57.3594 8.88399C56.9398 8.77417 56.4936 8.89928 56.1924 9.21122Z" fill="#FFAB71"/>
<path d="M17.1599 12.4596C17.6452 12.4595 18.0826 12.1672 18.2683 11.7188C18.454 11.2705 18.3514 10.7544 18.0083 10.4112L16.8083 9.21122C16.507 8.89928 16.0608 8.77417 15.6413 8.88399C15.2217 8.99381 14.8941 9.32146 14.7843 9.74102C14.6744 10.1606 14.7995 10.6067 15.1115 10.908L16.3115 12.108C16.5365 12.3331 16.8417 12.4596 17.1599 12.4596Z" fill="#FFAB71"/>
<path d="M26.3976 7.41008C26.5553 7.40974 26.7114 7.37877 26.8572 7.31888C27.1514 7.19704 27.385 6.96333 27.5068 6.66917C27.6285 6.37502 27.6284 6.04454 27.5064 5.75048L26.1276 2.42408C25.9697 2.01893 25.6049 1.73092 25.1742 1.67128C24.7434 1.61163 24.3141 1.78967 24.052 2.13666C23.7899 2.48364 23.7361 2.94526 23.9112 3.34328L25.2888 6.66968C25.4747 7.11799 25.9123 7.4102 26.3976 7.41008Z" fill="#FFAB71"/>
<path d="M48.4403 1.7748C47.8283 1.52161 47.1269 1.81217 46.8731 2.424L45.4943 5.7504C45.372 6.04461 45.3717 6.37539 45.4935 6.66983C45.6152 6.96426 45.8491 7.19818 46.1435 7.32C46.2894 7.37989 46.4455 7.41087 46.6031 7.4112C47.0885 7.41133 47.5261 7.11911 47.7119 6.6708L49.0895 3.3444C49.2119 3.0502 49.2122 2.71942 49.0904 2.42498C48.9686 2.13054 48.7348 1.89663 48.4403 1.7748Z" fill="#FFAB71"/>
<path d="M60.8903 21.6985C61.0481 21.6982 61.2043 21.6668 61.3499 21.6061L64.6751 20.2285C65.0712 20.0645 65.3498 19.7017 65.4059 19.2766C65.4619 18.8516 65.2869 18.4289 64.9469 18.1678C64.6068 17.9068 64.1532 17.847 63.7571 18.0109L60.4307 19.3885C59.8999 19.6066 59.5977 20.1699 59.7097 20.7327C59.8217 21.2955 60.3165 21.7003 60.8903 21.6985Z" fill="#FFAB71"/>
<path d="M11.6506 21.6061C12.2629 21.8599 12.9651 21.5692 13.219 20.9569C13.4728 20.3445 13.1821 19.6423 12.5698 19.3885L9.24335 18.0109C8.63098 17.7574 7.92905 18.0483 7.67555 18.6607C7.42205 19.273 7.71297 19.975 8.32535 20.2285L11.6506 21.6061Z" fill="#FFAB71"/>
</g>
</g>
<defs>
<clipPath id="clip0_84_837">
<rect width="70.9823" height="70.8" fill="white" transform="translate(1.00879 0.600098)"/>
</clipPath>
<clipPath id="clip1_84_837">
<rect width="70.9823" height="70.8" fill="white" transform="translate(1.00879 0.600098)"/>
</clipPath>
</defs>
</svg>
